inDegrees=no
num_controls=7
num_derivatives=13
num_iterations=26
num_multipliers=7
num_parameters=0
num_slacks=7
num_states=26
objective=0.458175
objective_accelerations=0.003971
objective_balance=0.001785
objective_effort=0.005324
objective_height=0.438965
objective_ligament=0.008130
solver_duration=409.872060
status=Solve_Succeeded
success=true
DataType=double
version=3
OpenSimVersion=4.5
endheader
time	/jointset/ground_pelvis/pelvis_tilt/value	/jointset/ground_pelvis/pelvis_tx/value	/jointset/ground_pelvis/pelvis_ty/value	/jointset/hip_l/hip_flexion_l/value	/jointset/hip_l/hip_adduction_l/value	/jointset/hip_l/hip_rotation_l/value	/jointset/back/lumbar_extension/value	/jointset/patellofemoral_l/patellar_flexion_l/value	/jointset/knee_l/knee_flexion_l/value	/jointset/knee_l/knee_adduction_l/value	/jointset/knee_l/knee_rotation_l/value	/jointset/ankle_l/ankle_angle_l/value	/jointset/subtalar_l/subtalar_angle_l/value	/jointset/ground_pelvis/pelvis_tilt/speed	/jointset/ground_pelvis/pelvis_tx/speed	/jointset/ground_pelvis/pelvis_ty/speed	/jointset/hip_l/hip_flexion_l/speed	/jointset/hip_l/hip_adduction_l/speed	/jointset/hip_l/hip_rotation_l/speed	/jointset/back/lumbar_extension/speed	/jointset/patellofemoral_l/patellar_flexion_l/speed	/jointset/knee_l/knee_flexion_l/speed	/jointset/knee_l/knee_adduction_l/speed	/jointset/knee_l/knee_rotation_l/speed	/jointset/ankle_l/ankle_angle_l/speed	/jointset/subtalar_l/subtalar_angle_l/speed	/forceset/tau_hip_flexion_l	/forceset/tau_hip_adduction_l	/forceset/tau_hip_rotation_l	/forceset/tau_knee_flexion_l	/forceset/tau_ankle_angle_l	/forceset/tau_subtalar_angle_l	/forceset/tau_lumbar_extension	lambda_cid13_p0	lambda_cid13_p1	lambda_cid13_p2	lambda_cid13_p3	lambda_cid13_p4	lambda_cid13_p5	lambda_cid14_p0	/jointset/ground_pelvis/pelvis_tilt/accel	/jointset/ground_pelvis/pelvis_tx/accel	/jointset/ground_pelvis/pelvis_ty/accel	/jointset/hip_l/hip_flexion_l/accel	/jointset/hip_l/hip_adduction_l/accel	/jointset/hip_l/hip_rotation_l/accel	/jointset/back/lumbar_extension/accel	/jointset/patellofemoral_l/patellar_flexion_l/accel	/jointset/knee_l/knee_flexion_l/accel	/jointset/knee_l/knee_adduction_l/accel	/jointset/knee_l/knee_rotation_l/accel	/jointset/ankle_l/ankle_angle_l/accel	/jointset/subtalar_l/subtalar_angle_l/accel	gamma_cid13_p0	gamma_cid13_p1	gamma_cid13_p2	gamma_cid13_p3	gamma_cid13_p4	gamma_cid13_p5	gamma_cid14_p0
0	0.0895778865510643	0.08776227309232813	0.9117624373550426	0.1266922784136757	-0.2586402705655391	-0.1499094985147647	-0.2144969558742783	0.2051545070141965	0.2051545070141877	0.04366557996385374	-0.02921259012229181	0.09024313228550125	0.2013811792034036	0	0	0	0	0	0	0	0	0	0	0	0	0	0.08343748833106911	0.02238349865785543	0.01996943750796759	-0.2229056688976948	0.1954801405112377	-0.04527480746899538	-0.01213420132623391	30.66953120877444	24.98430535329518	-16.47642111461532	-26.72065111972066	-459.4980187392134	-37.97666138952356	-21.48025027771395	0.1499583303750587	0.6213675356664672	-0.02054913962704891	-0.4817204777539221	-0.0260680852847732	-0.1173911651731017	-0.1525646097066655	0.855848056388384	0.8558480563883916	0.1788360332412167	-0.09705366787088976	1.259005698069609	0.4817579961892311	-1.419921647157055e-09	-1.185867921951399e-08	1.130013398315858e-09	-2.798641210527776e-09	-2.683940705794149e-08	-2.755038746844592e-08	5.276988640891815e-10
0.01	0.08958610998069486	0.08779449649960434	0.9117614507474944	0.1266662717275902	-0.2586418454836376	-0.1499157417287052	-0.214504372486517	0.2051980046458914	0.2051980046458895	0.04367423600202072	-0.02921774328326902	0.09030801080421764	0.2014057451875847	0.001712510761208056	0.006562087839842717	-0.0001969183367842289	-0.005373741154422903	-0.0003705702930960315	-0.001263432095648767	-0.00145251008901677	0.008806994742155325	0.008806994742157995	0.001650982437527129	-0.001060239407495667	0.01318472862255832	0.004935605755988349	0.08513120341984991	0.02609840742245719	0.02025836401585169	-0.2275029672112961	0.2048582383171678	-0.04951321792872894	-0.01306167717036788	33.31125345631783	26.87512848541089	-17.36341440663896	-29.23841256665114	-459.3445361593394	-34.13520332512074	-21.48043590465284	0.1920710601897141	0.6912398047064224	-0.01920807263661383	-0.5910619294438523	-0.05089085078290394	-0.1330374531099557	-0.136972354344612	0.9092453375777857	0.9092453375781153	0.1461953767348806	-0.114950315580582	1.379559693145997	0.5028249673707158	-7.882997264687796e-10	4.620480827859111e-09	-6.006283235889891e-09	6.656766976054431e-11	-4.48043538015789e-09	6.210665918588591e-09	4.519609519084188e-10
0.02	0.08961349324015598	0.08789586286459035	0.9117585059781935	0.1265813554309098	-0.2586487939745477	-0.1499350629078471	-0.214525389828815	0.2053327962559351	0.2053327962559311	0.04369699507024026	-0.02923438708591673	0.09051100725893935	0.2014803398497397	0.003831965970274331	0.0138285915419597	-0.0003916323505591408	-0.01178192211514622	-0.00107471456457735	-0.002615593045254081	-0.002720146011833555	0.01825879566225701	0.01825879566226229	0.002820605984081546	-0.002298128350660783	0.02762358719698641	0.01000573559464195	0.08682491850863075	0.02981331618678428	0.02054729052328991	-0.232100265524861	0.2142363361231122	-0.05375162838875988	-0.0139891530144935	35.95729053635274	28.76956681409821	-18.25597640564572	-31.80239347129294	-459.1173089114099	-30.26222836803438	-21.48105174385689	0.2313472199471495	0.7622507081208213	-0.02010827502517495	-0.6886084390138364	-0.09278288096178827	-0.1351369359643253	-0.1155897764665461	0.9848092919776819	0.9848092919776793	0.08256425504673498	-0.1325835750048118	1.509831688442976	0.5086628127220862	-1.566778057805044e-10	2.109964087523221e-08	-1.314257987009564e-08	2.931776550048864e-09	1.787853629762571e-08	3.99717193056231e-08	3.762230397276562e-10
0.03	0.08966273535007074	0.08807146967581696	0.9117536234135919	0.1264299740620597	-0.2586635533103762	-0.1499680866942783	-0.2145584654715524	0.205562961752032	0.2055629617520528	0.0437302142973286	-0.02926368360009054	0.09086087553291958	0.2016058000866494	0.005949022903348162	0.02121558644853256	-0.0005844414045885651	-0.0183892892752932	-0.001840597455848695	-0.003973760482031232	-0.003896610699146504	0.02764587641473869	0.02764587641474078	0.003864436977107717	-0.003524201762095649	0.04218122013547316	0.01506071998916027	0.0858151904357656	0.02981493384382541	0.02032901184727865	-0.2291666554296209	0.2087080573939165	-0.05302151856862684	-0.0134355446905487	34.2238516423177	28.44696491593029	-17.85156079342327	-30.10109086440514	-459.3545126558101	-30.84870718088081	-21.48216070371415	0.1917697892762531	0.7153468403295626	-0.01879767973870694	-0.6310414928185039	-0.06300527715201817	-0.1338440098244881	-0.1189190388926339	0.8963933206646031	0.8963933206642958	0.1214724934297629	-0.1120753900852742	1.40340257756606	0.5000757188025979	-7.419835063881647e-10	2.328566506407013e-08	-1.623147990036721e-08	2.52987904013347e-09	1.147514320589318e-08	3.961540595150168e-08	7.946299673243762e-10
0.04	0.0897311250011469	0.08831863102778929	0.9117468266666202	0.126215670893899	-0.2586848743319018	-0.1500142296275424	-0.2146033546059823	0.2058831452264084	0.2058831452264046	0.04377510782873249	-0.02930413208154	0.09135125483247857	0.2017810420607024	0.007661474208054037	0.02813949969110509	-0.0007744688245417453	-0.0243662819675422	-0.002387051704829305	-0.005239422410403066	-0.005082844347602393	0.0362623913184506	0.03626239131844957	0.005155466850104415	-0.004528521808423265	0.05572579231451383	0.01996208302310489	0.084805462362477	0.02981655150096835	0.02011073317106411	-0.2262330453346312	0.2031797786646516	-0.05229140874840422	-0.01288193636691046	32.49495067056839	28.12743963869555	-17.45205745739772	-28.44816195563251	-459.5201300336312	-31.40564550235016	-21.48368284633668	0.1504260942739671	0.6696343753202914	-0.01955194820991623	-0.56253354543408	-0.04889715250360707	-0.1166358342831852	-0.1175435686950321	0.830696122223745	0.8306961222237605	0.1320040310408855	-0.08823290198339712	1.307219536553209	0.4779385406071568	-1.352380498156567e-09	2.517698542077331e-08	-1.9236928454269e-08	2.060618511863359e-09	4.478711665304638e-09	3.855564173673787e-08	1.22322544831857e-09
0.05	0.08981558681417086	0.08863310936678179	0.9117381389177247	0.1259436829271711	-0.258711062147627	-0.1500727024267896	-0.2146597689053749	0.2062866470228581	0.2062866470228941	0.04383339968214927	-0.02935397190754064	0.09197308639093708	0.2020044088582932	0.009261545841540965	0.03471815367840316	-0.0009626065485094025	-0.03003631510802777	-0.00286127868265336	-0.006454306228358114	-0.006164551761473245	0.04440524510884751	0.04440524510884625	0.006473611555650484	-0.005446974746426352	0.06857667458115142	0.02467558205823519	0.08329142881458364	0.02964556370311638	0.01986887283549216	-0.222992008881711	0.197717559546632	-0.05135979216279144	-0.01187362745285279	30.83149253192776	27.70957021988334	-17.03759365814307	-27.15343806017429	-459.4924408942541	-32.07751566434418	-21.48555288338259	0.169395905355883	0.6462791532271369	-0.01837268435285875	-0.569989148788498	-0.04829847183756483	-0.1237865301836085	-0.09816476172540371	0.8011713300864625	0.8011713300866328	0.1273267179130805	-0.0947845723900802	1.264446497611589	0.4626998178342012	-1.432937185925551e-09	2.696988574187654e-08	-2.11291892091045e-08	2.276336446142002e-09	5.656281921782583e-09	4.274490446976352e-08	1.268851935813601e-09
0.06	0.08991696898499715	0.08901223389420493	0.9117275841916174	0.1256148444388596	-0.2587423148334044	-0.1501432984391516	-0.2147259363657283	0.2067705956217323	0.206770595621729	0.04390399438812809	-0.02941322287944934	0.09272151155722912	0.2022738394928097	0.01104554577388529	0.04106873737723622	-0.001147864266906602	-0.0357363862657944	-0.003400025717141538	-0.007664065031582827	-0.007033476535021409	0.05235175180478376	0.05235175180478239	0.007616037365266858	-0.006410750991677136	0.0810445138834705	0.02917485040808848	0.08177739526572153	0.02947457590541844	0.01962701249969405	-0.2197509724292565	0.1922553404284946	-0.05042817557704937	-0.01086531853952356	29.17220575084002	27.29414115918474	-16.62714063811142	-25.90212183692895	-459.4013613374308	-32.7234440698746	-21.48775909672126	0.1872117540458166	0.6240203176268645	-0.01897594709581537	-0.5685411488901425	-0.0618011638364018	-0.1156108313370504	-0.07498704063041363	0.7914267033316217	0.7914267033316594	0.09686025185498481	-0.097297563432971	1.230610943689	0.4350924035515794	-1.491184808262982e-09	2.875864206148082e-08	-2.297457889871615e-08	2.520895578843751e-09	7.178020674979118e-09	4.715517886374873e-08	1.298353413056035e-09
0.07000000000000001	0.09003667513182256	0.0894535216654871	0.9117151646014706	0.1252295157788396	-0.2587791373559444	-0.1502259164428963	-0.2147997242905004	0.2073328533367923	0.2073328533368402	0.04398536627506745	-0.02948223808426873	0.09359231463983993	0.2025872002670539	0.01288347356006018	0.04713045542829657	-0.00133791336003543	-0.04127023726242346	-0.003961063725192661	-0.00885005656389567	-0.00768904182049372	0.06004749799890038	0.06004749799889731	0.008651549222917953	-0.007385882165337049	0.09301244922953081	0.03346191632803758	0.08027209849298964	0.03098548031068841	0.01933581273657228	-0.2161711457499351	0.1864710618577543	-0.05084103046602048	-0.009909274729339071	27.27256750957744	27.47720926685153	-16.28070358778076	-24.29774834522566	-459.4290954249923	-32.11256321534886	-21.49030100334177	0.1802513259184347	0.5884938372663425	-0.01929687598691194	-0.5369412157107842	-0.05273996657202651	-0.1186674505460169	-0.05558128225439346	0.7508043358397062	0.7508043358396312	0.1058787300625308	-0.09666367141738975	1.164337539217057	0.4202037525660496	-1.494832912985587e-09	2.69180959487195e-08	-2.264110466497288e-08	2.219518519937304e-09	5.58827329813853e-09	4.481760789669728e-08	1.272021444727002e-09
